<svg width="314" height="210" viewBox="0 0 314 210" fill="none" xmlns="http://www.w3.org/2000/svg">
<path d="M313 107.142L282.673 118.565L277.751 107.142L265.684 103.493L252.188 96.8291L244.408 96.8291L232.817 100.478L217.733 96.8291L199.473 76.8383L189.788 64.6217L178.197 64.6217L164.86 54.3089L151.522 48.2799L122.466 57.3234L110.875 54.3089L90.2336 57.3234L72.6092 60.9725L59.2718 57.3234L50.8565 54.3089L50.8565 57.3234L45.9344 57.3234L45.9344 60.9725L54.9847 64.6217L54.9847 68.2708L50.8565 68.2708L54.9847 73.6651L59.2718 76.8383L72.6092 82.8673L80.5481 82.8673L102.936 76.8383L105.953 80.9634L125.959 76.8383L136.279 82.8673L146.124 82.8673L146.124 76.8383L163.113 93.8146L169.782 100.478L173.91 118.565L182.484 124.753L188.518 121.58L212.811 133.796L217.733 145.854L223.766 184.091L232.817 190.12L265.684 184.091L273.464 180.442L277.751 184.091L296.011 184.091L312.365 187.105L313 197.418L296.011 209L1.00002 209L1.00002 0.999992L313 0.999992L313 107.142Z" fill="#CFCFCF"/>
<circle cx="156.945" cy="73.9448" r="61.9449" fill="#C92E5D"/>
<path d="M156.945 199.309L103.299 105.286L210.591 105.286L156.945 199.309Z" fill="#C92E5D"/>
<path d="M185 60C185.583 61.2917 186 62.5625 186.25 63.8125C186.542 65.0208 186.687 66.2292 186.687 67.4375C186.687 70.8542 185.708 74.125 183.75 77.25C181.792 80.375 179.146 83.2083 175.812 85.75C172.521 88.25 168.687 90.375 164.312 92.125C159.979 93.875 155.396 95.0625 150.562 95.6875C150.479 96.4792 150.437 97.3542 150.437 98.3125C150.437 99.2292 150.437 100.188 150.437 101.188C150.437 103.396 150.479 105.375 150.562 107.125C150.646 108.875 150.854 110.396 151.187 111.688C151.437 112.813 151.562 113.667 151.562 114.25C151.604 114.792 151.521 115.167 151.312 115.375C151.146 115.542 150.896 115.583 150.562 115.5C150.229 115.417 149.854 115.271 149.437 115.063C149.021 114.896 148.667 115.021 148.375 115.438C148.125 115.813 147.854 116.292 147.562 116.875C147.271 117.417 146.958 117.958 146.625 118.5C146.292 119 145.854 119.292 145.312 119.375C144.812 119.458 144.354 119.417 143.937 119.25C143.562 119.042 143.229 118.771 142.937 118.438C142.646 118.104 142.396 117.75 142.187 117.375C141.979 117 141.792 116.688 141.625 116.438C141.5 116.271 141.354 115.521 141.187 114.188C141.062 112.854 140.937 111.25 140.812 109.375C140.729 107.5 140.646 105.521 140.562 103.438C140.479 101.354 140.437 99.4583 140.437 97.75C140.437 95.8333 140.542 94.5208 140.75 93.8125C140.917 93.1042 141.125 92.5 141.375 92C141.667 91.5 141.958 91.0833 142.25 90.75C142.542 90.4167 142.833 90.1667 143.125 90C143.417 89.7917 143.646 89.6458 143.812 89.5625C143.896 89.5208 144.396 89.4792 145.312 89.4375C146.229 89.3542 147.417 89.2083 148.875 89C150.375 88.75 152.042 88.3958 153.875 87.9375C155.708 87.4792 157.583 86.8542 159.5 86.0625C161.417 85.2292 163.292 84.2083 165.125 83C166.958 81.75 168.583 80.2292 170 78.4375C171.417 76.6042 172.562 74.4792 173.437 72.0625C174.312 69.6458 174.75 66.8542 174.75 63.6875C174.75 61.5625 174.292 59.7292 173.375 58.1875C172.5 56.6042 171.312 55.3125 169.812 54.3125C168.354 53.2708 166.646 52.5208 164.687 52.0625C162.771 51.5625 160.75 51.3125 158.625 51.3125C156.083 51.3125 153.542 51.6667 151 52.375C148.458 53.0417 146.146 54.0208 144.062 55.3125C142.021 56.6042 140.333 58.2083 139 60.125C137.708 62 137.042 64.125 137 66.5C137 67.5417 137.104 68.5625 137.312 69.5625C137.562 70.5625 138.146 71.1667 139.062 71.375C139.271 71.4583 139.437 71.6458 139.562 71.9375C139.729 72.1875 139.937 72.3958 140.187 72.5625C140.646 72.8125 140.75 73.1458 140.5 73.5625C140.25 73.9792 139.896 74.2292 139.437 74.3125C138.937 74.4375 138.625 74.625 138.5 74.875C138.375 75.125 138.167 75.2917 137.875 75.375C137.667 75.4167 137.542 75.4792 137.5 75.5625C137.5 75.6042 137.437 75.6458 137.312 75.6875C137.229 75.6875 137.021 75.6875 136.687 75.6875C136.396 75.6458 135.896 75.5417 135.187 75.375C134.146 75.125 133.083 74.6458 132 73.9375C130.917 73.1875 129.917 72.2917 129 71.25C128.125 70.2083 127.396 69.0208 126.812 67.6875C126.271 66.3542 126 64.9375 126 63.4375C126 62.0208 126.292 60.5625 126.875 59.0625C127.5 57.5625 128.521 56.0833 129.937 54.625C131.479 53.0833 133.271 51.7083 135.312 50.5C137.354 49.25 139.542 48.2083 141.875 47.375C144.25 46.5 146.708 45.8542 149.25 45.4375C151.833 44.9792 154.417 44.75 157 44.75C159.917 44.75 162.771 45.0417 165.562 45.625C168.396 46.2083 171.042 47.125 173.5 48.375C176 49.625 178.229 51.2083 180.187 53.125C182.187 55.0417 183.792 57.3333 185 60ZM155.062 128.375C155.104 128.958 155.083 129.646 155 130.438C154.917 131.188 154.75 131.917 154.5 132.625C154.292 133.333 154 133.979 153.625 134.563C153.25 135.104 152.792 135.458 152.25 135.625C150.708 136.167 149.5 136.438 148.625 136.438C147.792 136.438 147.083 136.292 146.5 136C145.958 135.708 145.396 135.375 144.812 135C143.979 134.542 143.271 133.917 142.687 133.125C142.146 132.333 141.875 131.542 141.875 130.75C141.875 130.167 142 129.458 142.25 128.625C142.542 127.792 142.875 126.979 143.25 126.188C143.667 125.354 144.104 124.604 144.562 123.938C145.062 123.271 145.521 122.813 145.937 122.563C146.646 122.188 147.208 122 147.625 122C148.083 121.958 148.521 121.938 148.937 121.938C150.854 121.938 152.333 122.438 153.375 123.438C154.417 124.396 154.979 126.042 155.062 128.375Z" fill="white"/>
</svg>
