<svg width="95" height="71" viewBox="0 0 95 71" fill="none" xmlns="http://www.w3.org/2000/svg">
<path opacity="0.5" d="M93.0433 11.0962C91.9477 6.75787 88.7393 3.33722 84.6702 2.16919C77.2361 0 47.4998 0 47.4998 0C47.4998 0 17.7635 0 10.3294 2.08576C6.33852 3.25379 3.05188 6.75787 1.95633 11.0962C0 19.0221 0 35.4579 0 35.4579C0 35.4579 0 51.9772 1.95633 59.8196C3.05188 64.158 6.26027 67.5787 10.3294 68.7467C17.8418 70.9159 47.4998 70.9159 47.4998 70.9159C47.4998 70.9159 77.2361 70.9159 84.6702 68.8301C88.7393 67.6621 91.9477 64.2414 93.0433 59.9031C94.9996 51.9772 94.9996 35.5414 94.9996 35.5414C94.9996 35.5414 95.0779 19.0221 93.0433 11.0962Z" fill="black"/>
<path d="M38.0312 50.6421L62.7592 35.4578L38.0312 20.2734V50.6421Z" fill="white"/>
</svg>
